<svg width="17" height="16" viewBox="0 0 17 16"
        fill="none"
    >
        <path fill-rule="evenodd" clip-rule="evenodd"
                d="M15.5442 12.7831C15.5417 12.1004 15.0886 12.0844 14.5477 11.8556L12.0221 10.7856C11.978 10.7671 11.9349 10.7479 11.8925 10.7276V10.7262C11.4435 10.5113 11.0474 10.2129 10.9018 10.0019L10.8959 9.99552L10.8944 9.99195C10.886 9.97912 10.8769 9.96492 10.8696 9.95174L10.8639 9.94L10.8624 9.93716L10.8569 9.93039V9.92929C10.7897 9.82367 10.7221 9.77559 10.6644 9.79629L10.6608 9.79804L10.6592 9.7984L10.6585 9.79914L10.6556 9.80124H10.6533L10.6503 9.80445C10.582 9.84217 10.5956 9.80124 10.5675 9.72192C10.4991 9.52654 10.3866 9.15447 10.3695 9.10079C10.3432 8.99873 10.2726 9.26162 10.2889 8.97805L10.3182 8.46654C10.3648 8.41314 10.4022 8.36936 10.4279 8.3395C10.5924 8.14099 10.6036 7.61485 10.6855 7.48745C10.7681 7.35911 10.9338 7.33171 11.098 6.73359C11.2632 6.1381 11.4641 5.2854 11.2521 5.27084C11.2001 5.26764 11.1411 5.30355 11.08 5.36014C11.1173 5.14095 11.1963 4.64358 11.2137 4.27681C11.238 3.7938 11.1615 2.55437 10.9018 2.10113C10.7391 1.81756 10.4115 1.53624 10.0846 1.31705C9.8892 1.18579 9.69376 1.07587 9.53395 1.00149C9.05792 0.778814 7.55746 0.881234 7.04898 1.00149C6.47014 1.13851 6.0647 1.52268 5.8057 1.97803C5.54693 2.43235 5.43161 3.79554 5.45431 4.27872C5.46543 4.49571 5.58801 4.86102 5.61888 5.08436C5.63704 5.20039 5.65317 5.20141 5.66678 5.28475C5.64521 5.27505 5.6241 5.2712 5.60549 5.27266C5.3928 5.2865 5.59368 6.1392 5.75849 6.73541C5.92306 7.33171 6.08832 7.36012 6.17049 7.48927C6.25289 7.6166 6.26492 8.14245 6.42973 8.34096C6.45583 8.3733 6.49555 8.41846 6.54482 8.4736L6.57682 8.89165L6.63221 9.12432C6.60701 9.05809 6.55639 9.01468 6.53346 9.10151C6.46241 9.32988 6.39068 9.55794 6.32032 9.78558C6.31282 9.77422 6.30124 9.76744 6.2883 9.76643C6.21931 9.70195 6.12623 9.75754 6.04201 9.9062C5.91784 10.1268 5.50492 10.4431 5.02573 10.6707L5.01871 10.6981L5.01143 10.7262L5.00893 10.7379C4.97147 10.755 4.93312 10.7728 4.89452 10.7884L2.36939 11.8582C1.82936 12.0862 1.3765 12.1033 1.37263 12.7859L0.954504 15.1114H16.1056L15.5429 12.7859L15.5442 12.7831Z"
                fill="white"
        />
    </svg>